<?xml version="1.0" encoding="UTF-8"?>
<!DOCTYPE xml>

<svg width="36" height="16"
	 viewBox="0 0 36 16" version="1.1"
	 xmlns="http://www.w3.org/2000/svg"
	 xmlns:xlink="http://www.w3.org/1999/xlink">

	<polygon style="fill:#f00" points="
	0,14
	0,15
	1,15
	1,14
	2,14
	2,15
	3,15
	3,16
	4,16
	4,15
	3,15
	3,14
	2,14
	2,13
	1,13
	1,14
	" />

	<polygon style="fill:#f00" points="
	4,14
	4,15
	5,15
	5,14
	6,14
	6,15
	7,15
	7,16
	8,16
	8,15
	7,15
	7,14
	6,14
	6,13
	5,13
	5,14
	" />

	<polygon style="fill:#f00" points="
	8,14
	8,15
	9,15
	9,14
	10,14
	10,15
	11,15
	11,16
	12,16
	12,15
	11,15
	11,14
	10,14
	10,13
	9,13
	9,14
	" />

	<polygon style="fill:#f00" points="
	12,14
	12,15
	13,15
	13,14
	14,14
	14,15
	15,15
	15,16
	16,16
	16,15
	15,15
	15,14
	14,14
	14,13
	13,13
	13,14
	" />

	<polygon style="fill:#f00" points="
	16,14
	16,15
	17,15
	17,14
	18,14
	18,15
	19,15
	19,16
	20,16
	20,15
	19,15
	19,14
	18,14
	18,13
	17,13
	17,14
	" />

	<polygon style="fill:#f00" points="
	20,14
	20,15
	21,15
	21,14
	22,14
	22,15
	23,15
	23,16
	24,16
	24,15
	23,15
	23,14
	22,14
	22,13
	21,13
	21,14
	" />

	<polygon style="fill:#f00" points="
	24,14
	24,15
	25,15
	25,14
	26,14
	26,15
	27,15
	27,16
	28,16
	28,15
	27,15
	27,14
	26,14
	26,13
	25,13
	25,14
	" />

	<polygon style="fill:#f00" points="
	28,14
	28,15
	29,15
	29,14
	30,14
	30,15
	31,15
	31,16
	32,16
	32,15
	31,15
	31,14
	30,14
	30,13
	29,13
	29,14
	" />

	<polygon style="fill:#f00" points="
	32,14
	32,15
	33,15
	33,14
	34,14
	34,15
	35,15
	35,16
	36,16
	36,15
	35,15
	35,14
	34,14
	34,13
	33,13
	33,14
	" />

</svg>