<svg width="36" height="16" xmlns="http://www.w3.org/2000/svg"><path d="M0 2h6v1H1v3h5v1H1v3h5v1H0zM9 4v2h1v1h1V6h1V4h1v2h-1v1h-1v1h1v1h1v2h-1V9h-1V8h-1v1H9v2H8V9h1V8h1V7H9V6H8V4zM18 6h1V5h-1V4h-3v1h-1v5h1v1h3v-1h1V9h-1v1h-3V5h3zM21 4v6h1v1h4V4h-1v6h-3V4zM27 4h1V2h1v2h1v1h-1v5h1v1h-2V5h-1zM35 7h-3v1h4V5h-1V4h-3v1h-1v5h1v1h3v-1h1V9h-1v1h-3V5h3z"/><path fill="red" d="M0 14v1h1v-1h1v1h1v1h1v-1H3v-1H2v-1H1v1zM4 14v1h1v-1h1v1h1v1h1v-1H7v-1H6v-1H5v1zM8 14v1h1v-1h1v1h1v1h1v-1h-1v-1h-1v-1H9v1zM12 14v1h1v-1h1v1h1v1h1v-1h-1v-1h-1v-1h-1v1zM16 14v1h1v-1h1v1h1v1h1v-1h-1v-1h-1v-1h-1v1zM20 14v1h1v-1h1v1h1v1h1v-1h-1v-1h-1v-1h-1v1zM24 14v1h1v-1h1v1h1v1h1v-1h-1v-1h-1v-1h-1v1zM28 14v1h1v-1h1v1h1v1h1v-1h-1v-1h-1v-1h-1v1zM32 14v1h1v-1h1v1h1v1h1v-1h-1v-1h-1v-1h-1v1z"/></svg>